<svg xmlns="http://www.w3.org/2000/svg" xml:space="preserve" width="1000px" height="168px" x="0px" y="0px" viewBox="0 0 1000 168"><g fill="#767575"><path d="M199.05 27.028h16.885l74.931 63.623c4.332 3.561 8.487 7.333 12.169 11.711-.628-8.98-1.03-15.291-1.03-18.614v-56.72h22.271V135.01H307.37l-78.187-66.78c-3.099-2.695-5.995-5.455-8.868-8.778.785 8.364 1.011 14.012 1.011 17.178v58.38H199.05V27.028zM355.826 27.028H464.75V45.44h-84.203v24.058h84.07v18.437h-84.07v26.753h85.258v20.322H355.826V27.028zM517.112 27.028h78.39c20.051 0 26.406 5.209 26.406 25.506v56.935c0 20.32-6.355 25.541-26.406 25.541h-78.39c-20.006 0-26.406-5.221-26.406-25.541V52.534c0-20.297 6.4-25.506 26.406-25.506zm80.073 87.66V46.249h-81.733v68.438h81.733zM639.646 27.028h25.621l27.011 72.414 28.249-72.414h17.357l28.853 72.414 25.82-72.414h22.097l-41.09 107.982h-16.707l-29.303-74.728-29.753 74.728h-17.086L639.646 27.028zM835.421 27.028h24.771V135.01h-24.771V27.028zM884.715 123.3l74.479-77.051h-67.052V27.028h106.856v10.645l-75.463 77.015h75.463v20.322H884.715V123.3z"/></g><g fill="#E1002A"><path d="M74.711 80.252c-2.082 5.018.311 10.754 5.301 12.836 5.035 2.067 10.796-.293 12.878-5.311 2.091-5.017-.326-10.771-5.344-12.871-4.984-2.064-10.763.314-12.835 5.346z"/><path d="M7.314 115.68c17.51 42.245 65.927 62.295 108.175 44.786 42.23-17.474 62.278-65.903 44.787-108.133C142.784 10.102 94.367-9.978 52.134 7.528 9.889 25.02-10.162 73.449 7.314 115.68zm89.97-84.527c.033 8.737-4.33 11.506-8.885 14.293l-2.888 1.576.877.918c4.158 4.493 4.896 11.394 1.779 16.819l-.474.868.835.542c2.13 1.312 4.467 1.854 4.559 1.869l.998.231.245-.951a14.594 14.594 0 0 1 8.436-9.607c1.46-.607 3.068-.983 4.697-1.016l1.297-.065-.903-3.116c-1.294-5.212-2.378-10.248 3.779-16.428a17.34 17.34 0 0 1 5.384-3.59c7.271-3 15.345-.64 17.329-.015.936 2.787 4.345 14.752-3.622 22.704-1.887 1.919-3.696 3.13-5.411 3.835-3.82 1.59-7.41.871-10.967-.033l-3.154-.918-.042 1.297c-.198 5.473-3.772 10.41-8.87 12.525a19.65 19.65 0 0 1-1.753.604l-.978.281.223.951c.515 2.343 1.818 4.458 1.868 4.54l.551.835.859-.492a17.25 17.25 0 0 1 1.673-.803c5.115-2.147 11.115-1.164 15.155 2.589l.909.853 1.585-2.867c1.892-3.133 3.924-6.166 7.735-7.771 1.721-.723 3.854-1.131 6.552-1.117 11.277 0 17.334 10.87 18.613 13.512-1.024 2.046-4.993 9.229-12.154 12.195a16.641 16.641 0 0 1-6.459 1.295c-8.74 0-11.519-4.327-14.287-8.918l-1.585-2.885-.933.9a14.44 14.44 0 0 1-4.066 2.606 14.609 14.609 0 0 1-12.738-.835l-.859-.477-.551.838c-1.294 2.097-1.851 4.457-1.868 4.558l-.223.983.945.261c6.065 1.641 10.425 7.034 10.655 13.117l.016 1.276 3.157-.885c5.203-1.31 10.202-2.394 16.384 3.787 7.961 7.984 4.549 19.953 3.625 22.705-2.781.953-14.764 4.361-22.707-3.59-6.173-6.182-5.064-11.195-3.803-16.393l.918-3.164-1.279-.018c-6.099-.278-11.542-4.605-13.133-10.639l-.278-.986-.982.25c-2.459.539-4.467 1.833-4.559 1.868l-.85.557.506.853c3.116 5.394 2.379 12.327-1.779 16.803l-.877.936 2.888 1.59c4.555 2.77 8.885 5.557 8.885 14.278 0 11.245-10.896 17.296-13.476 18.608-2.615-1.279-13.508-7.33-13.508-18.641 0-8.705 4.309-11.491 8.899-14.264l2.879-1.59-.886-.918c-4.155-4.49-4.893-11.395-1.779-16.82l.491-.835-.835-.557c-.089-.05-2.139-1.329-4.567-1.868l-.983-.25-.261.969a14.563 14.563 0 0 1-8.411 9.59 14.822 14.822 0 0 1-4.729 1.066l-1.279.033.895 3.148c1.312 5.197 2.393 10.196-3.779 16.359a16.36 16.36 0 0 1-5.435 3.607c-7.206 3-15.271.672-17.27.016-.829-2.491-4.336-14.753 3.613-22.705 1.919-1.919 3.714-3.115 5.426-3.835 3.806-1.558 7.362-.853 10.961.032l3.148.934.057-1.31c.204-5.476 3.746-10.396 8.843-12.524a13.533 13.533 0 0 1 1.771-.593l.951-.278-.214-.966c-.015-.101-.589-2.509-1.884-4.543l-.518-.817-.868.492c-.542.293-1.099.571-1.673.803-5.106 2.114-11.089 1.163-15.123-2.592l-.933-.868-1.584 2.87c-1.911 3.145-3.925 6.195-7.745 7.769-1.712.723-3.836 1.131-6.558 1.131-11.239 0-17.426-11.162-18.575-13.522.909-1.854 4.993-9.199 12.214-12.214 1.893-.788 4.016-1.297 6.361-1.297 8.72.018 11.542 4.345 14.303 8.953l1.584 2.853.918-.853a13.682 13.682 0 0 1 4.096-2.591c3.658-1.522 8.305-1.736 12.715.82l.868.459.542-.835c.023-.083 1.303-2.147 1.877-4.54l.229-.983-.983-.296c-6.024-1.608-10.387-7.016-10.614-13.132l-.042-1.262-3.13.9c-5.213 1.279-10.229 2.36-16.402-3.803-7.967-7.952-4.549-19.935-3.631-22.704 2.467-.806 14.761-4.362 22.704 3.589 6.196 6.196 5.091 11.231 3.812 16.426l-.927 3.166 1.288.015c6.107.231 11.524 4.59 13.156 10.624l.236.983 1.001-.246c.107-.015 2.557-.607 4.559-1.869l.853-.542-.509-.868c-3.099-5.411-2.37-12.327 1.771-16.819l.854-.936-2.848-1.554c-4.549-2.77-8.894-5.556-8.899-14.293.006-11.263 11.171-17.444 13.508-18.623 2.621 1.309 13.475 7.36 13.475 18.622z"/></g></svg>