<svg xmlns="http://www.w3.org/2000/svg" xml:space="preserve" width="1000px" height="265.568px" x="0px" y="0px" viewBox="0 0 1000 265.568"><path fill="#a6a6a6" d="m68.71 110.767-31.097 20.268.045-41.235z"/><path fill="#7f7f7f" d="m98.339 130.779.015 48.713-35.55-23.618z"/><path fill="#2f2386" d="M9.346 27.654 54.526 0 178.99 81.708l-44.02 29.206z"/><path fill="#a6a6a6" d="m134.95 110.914 44.039-29.206v44.623l-44.02 29.019z"/><path fill="#fff" d="m37.64 89.775 60.714 41.004v48.713l36.615-24.142v-44.436L9.346 27.654l.037 121.816 28.23-18.435z"/><path fill="#7f7f7f" d="m95.79 220.34 113.408-74.923.017 43.379-113.41 76.772z"/><path fill="#fff" d="M.077 198.363 0 155.58l95.788 64.762.017 45.227z"/><path fill="#f9b314" d="m0 155.579 95.788 64.762 113.41-74.924-30.21-19.086-80.634 53.161-35.55-23.64 35.535-25.073-29.63-20.012z"/><path d="M384.692 163.336V99.837c0-6.283 5.092-11.457 11.325-11.533l93.127-.01a2.335 2.335 0 0 1 2.328 2.344l-.014 12.91c0 1.296-1.003 2.29-2.277 2.29l-65.535-.027c-.13 0-3.705-.042-6.264 2.466-1.606 1.542-2.418 3.792-2.418 6.568v33.637c0 6.972 4.89 8.812 7.495 8.812l66.722.023c2.21 0 2.291 1.726 2.291 2.263v12.884c0 1.2-1.084 2.306-2.214 2.44h-93.324c-6.187-.08-11.242-5.26-11.242-11.568zM356.812 88.272c5.468 0 9.948 4.482 9.948 9.943l-.02 76.586h-30.268l-.038-62.763c-.09-6.3-5.59-6.227-5.626-6.227h-48.577v68.99H251.1V88.294ZM586.486 151.709v-6.693c0-3.06-2.498-5.541-5.556-5.541l-61.296-.026c-6.473 0-11.765-5.28-11.765-11.757v-27.595c0-6.502 5.292-11.773 11.765-11.773h92.538c1.297 0 2.344 1.043 2.344 2.312v12.772a2.334 2.334 0 0 1-2.344 2.328h-70.604c-3.066 0-5.537 2.503-5.537 5.561v4.62c0 2.92 2.117 6.01 5.46 6.01l61.805-.021c6.542 0 11.66 4.944 11.66 11.275l-.045 29.93c0 6.508-5.304 11.792-11.786 11.792l-92.68.013c-1.83 0-2.337-1.749-2.337-2.792V159.59a2.33 2.33 0 0 1 2.337-2.324h70.484a5.553 5.553 0 0 0 5.557-5.556M733.604 88.03h-90.497c-6.248.062-11.289 5.163-11.289 11.383v64.31c0 6.18 5.041 11.29 11.254 11.366h90.532c6.206-.077 11.261-5.185 11.261-11.367V99.413c0-6.22-5.055-11.321-11.26-11.382m-18.374 62.668c0 4.026-2.447 6.83-5.976 6.83h-41.27c-3.4 0-6.184-2.804-6.184-6.207v-39.567c0-3.429 2.776-6.226 6.184-6.226l41.328.019c3.316 0 5.941 2.441 5.941 5.575zM761.727 99.781c0-6.157 5.306-11.401 11.6-11.477l98.157-.032c1.133 0 2.111.945 2.111 2.103v13.172c0 1.297-.978 2.264-2.249 2.264h-71.248c-.139 0-3.77-.073-6.32 2.43-1.57 1.515-2.369 3.652-2.369 6.33v9.814l74.59.008c1.168 0 2.113.967 2.113 2.12v13.25c0 1.277-.962 2.255-2.258 2.255h-74.47s.026 32.77 0 32.783c0-.013-29.636.024-29.655 0-.036-.03-.003-75.02-.003-75.02zM885.837 105.718a2.354 2.354 0 0 1-2.344-2.348V90.6a2.334 2.334 0 0 1 2.344-2.328h111.817a2.317 2.317 0 0 1 2.336 2.328l.01 12.77a2.326 2.326 0 0 1-2.345 2.322h-32.6c-4.764 0-8.661 3.873-8.661 8.659 0 0 .008 61.672.018 61.68-.01-.008-29.621-.008-29.629 0 .009-.008 0-61.631 0-61.631 0-4.791-3.906-8.68-8.69-8.68h-32.255z"/></svg>